<svg width="326" height="70" viewBox="0 0 326 70" fill="none" xmlns="http://www.w3.org/2000/svg">
<path d="M30 25V32.5C28.901 32.5019 27.8332 32.8659 26.9618 33.5357C26.0904 34.2055 25.464 35.1437 25.1794 36.2052C24.8948 37.2668 24.9679 38.3925 25.3874 39.4084C25.8068 40.4242 26.5493 41.2735 27.5 41.825V45C27.5 45.663 27.7634 46.2989 28.2322 46.7678C28.7011 47.2366 29.337 47.5 30 47.5V55H12.5C11.1739 55 9.90215 54.4732 8.96447 53.5355C8.02678 52.5979 7.5 51.3261 7.5 50V30C7.5 27.25 9.75 25 12.5 25H30Z" fill="#173ab6"/>
<path d="M30 47.5C30.663 47.5 31.2989 47.2366 31.7678 46.7678C32.2366 46.2989 32.5 45.663 32.5 45V41.825C33.4507 41.2735 34.1932 40.4242 34.6126 39.4084C35.0321 38.3925 35.1052 37.2668 34.8206 36.2052C34.536 35.1437 33.9096 34.2055 33.0382 33.5357C32.1668 32.8659 31.099 32.5019 30 32.5V25H37.5V17.5C37.5 15.5109 36.7098 13.6032 35.3033 12.1967C33.8968 10.7902 31.9891 10 30 10C28.0109 10 26.1032 10.7902 24.6967 12.1967C23.2902 13.6032 22.5 15.5109 22.5 17.5V20H17.5V17.5C17.5 14.1848 18.817 11.0054 21.1612 8.66117C23.5054 6.31696 26.6848 5 30 5C33.3152 5 36.4946 6.31696 38.8388 8.66117C41.183 11.0054 42.5 14.1848 42.5 17.5V25H47.5C48.8261 25 50.0979 25.5268 51.0355 26.4645C51.9732 27.4021 52.5 28.6739 52.5 30V50C52.5 51.3261 51.9732 52.5979 51.0355 53.5355C50.0979 54.4732 48.8261 55 47.5 55H30V47.5Z" fill="#173ab6"/>
<path d="M88.3906 49C87.2969 49 86.75 48.4141 86.75 47.2422V17.1484C86.75 15.9766 87.2969 15.3906 88.3906 15.3906H92.1875C93.125 15.3906 93.5938 15.9766 93.5938 17.1484V43.1875H107.258C108.43 43.1875 109.016 43.6953 109.016 44.7109V47.4766C109.016 48.4922 108.43 49 107.258 49H88.3906ZM113.549 36.6953C113.549 32.7109 114.573 29.5859 116.62 27.3203C118.682 25.0547 121.745 23.9219 125.807 23.9219C129.87 23.9219 132.924 25.0547 134.971 27.3203C137.034 29.5859 138.065 32.7109 138.065 36.6953C138.065 40.6797 137.034 43.8047 134.971 46.0703C132.924 48.3359 129.87 49.4688 125.807 49.4688C121.745 49.4688 118.682 48.3359 116.62 46.0703C114.573 43.8047 113.549 40.6797 113.549 36.6953ZM120.487 36.6953C120.487 39.6641 120.94 41.7734 121.846 43.0234C122.768 44.2578 124.088 44.875 125.807 44.875C127.526 44.875 128.838 44.2578 129.745 43.0234C130.667 41.7734 131.128 39.6641 131.128 36.6953C131.128 33.7266 130.667 31.625 129.745 30.3906C128.838 29.1406 127.526 28.5156 125.807 28.5156C124.088 28.5156 122.768 29.1406 121.846 30.3906C120.94 31.625 120.487 33.7266 120.487 36.6953ZM143.255 36.6953C143.255 32.7109 144.255 29.5859 146.255 27.3203C148.255 25.0547 151.325 23.9219 155.466 23.9219C157.888 23.9219 159.771 24.2422 161.114 24.8828C162.458 25.5234 163.536 26.4609 164.349 27.6953C164.833 28.4297 164.755 29.0078 164.114 29.4297L161.63 31.0703C160.927 31.5391 160.31 31.3594 159.778 30.5312C159.513 30.125 159.005 29.6875 158.255 29.2188C157.505 28.75 156.575 28.5156 155.466 28.5156C153.7 28.5156 152.38 29.1406 151.505 30.3906C150.63 31.625 150.193 33.7266 150.193 36.6953C150.193 39.6641 150.63 41.7734 151.505 43.0234C152.38 44.2578 153.7 44.875 155.466 44.875C156.732 44.875 157.755 44.6094 158.536 44.0781C159.318 43.5469 160.052 42.8594 160.739 42.0156C161.333 41.2969 161.958 41.1953 162.614 41.7109L164.794 43.4219C165.45 43.9375 165.489 44.625 164.911 45.4844C164.302 46.3906 163.263 47.2812 161.794 48.1562C160.341 49.0312 158.232 49.4688 155.466 49.4688C151.325 49.4688 148.255 48.3359 146.255 46.0703C144.255 43.8047 143.255 40.6797 143.255 36.6953ZM172.867 49C171.929 49 171.461 48.5312 171.461 47.5938V15.8125C171.461 14.875 171.929 14.4062 172.867 14.4062H176.617C177.554 14.4062 178.023 14.875 178.023 15.8125V33.0391C178.023 33.6641 177.992 34.2891 177.929 34.9141H178.023L185.453 25.3516C185.953 24.7109 186.562 24.3906 187.281 24.3906H191.125C192.562 24.3906 192.804 24.9688 191.851 26.125L184.773 34.6797L192.976 47.2656C193.726 48.4219 193.484 49 192.25 49H188.242C187.461 49 186.82 48.5938 186.32 47.7812L181 39.2266L178.023 42.8125V47.5938C178.023 48.5312 177.554 49 176.617 49H172.867ZM198.565 47.3594C197.799 46.8125 197.588 46.2266 197.932 45.6016L199.127 43.4219C199.549 42.6406 200.205 42.5469 201.096 43.1406C201.987 43.7344 203.033 44.1719 204.237 44.4531C205.455 44.7344 206.565 44.875 207.565 44.875C208.268 44.875 208.924 44.8047 209.533 44.6641C210.143 44.5234 210.658 44.25 211.08 43.8438C211.502 43.4375 211.713 42.8438 211.713 42.0625C211.713 41.5938 211.588 41.1953 211.338 40.8672C211.088 40.5391 210.768 40.2891 210.377 40.1172C209.987 39.9453 209.573 39.8047 209.135 39.6953C208.557 39.5547 207.721 39.3203 206.627 38.9922C205.549 38.6641 204.51 38.2812 203.51 37.8438C202.682 37.4844 201.869 36.9844 201.073 36.3438C200.291 35.6875 199.713 34.9609 199.338 34.1641C198.979 33.3672 198.799 32.3828 198.799 31.2109C198.799 29.6328 199.252 28.25 200.158 27.0625C201.08 25.875 202.268 25.0547 203.721 24.6016C205.174 24.1484 206.987 23.9219 209.158 23.9219C210.627 23.9219 212.057 24.1328 213.448 24.5547C214.838 24.9766 215.83 25.375 216.424 25.75C217.362 26.3438 217.596 26.9766 217.127 27.6484L215.698 29.7344C215.26 30.3594 214.557 30.4062 213.588 29.875C212.854 29.4688 212.127 29.1406 211.408 28.8906C210.705 28.6406 209.916 28.5156 209.041 28.5156C208.448 28.5156 207.877 28.5781 207.33 28.7031C206.783 28.8281 206.315 29.0625 205.924 29.4062C205.549 29.75 205.362 30.2031 205.362 30.7656C205.362 31.3594 205.533 31.8281 205.877 32.1719C206.237 32.5 206.643 32.7422 207.096 32.8984C207.565 33.0547 208.01 33.2031 208.432 33.3438C209.307 33.625 210.19 33.8984 211.08 34.1641C211.971 34.4141 212.877 34.7188 213.799 35.0781C214.596 35.3906 215.369 35.8359 216.119 36.4141C216.869 36.9922 217.416 37.7266 217.76 38.6172C218.104 39.5078 218.276 40.5234 218.276 41.6641C218.276 43.1797 217.823 44.5859 216.916 45.8828C216.01 47.1797 214.815 48.1016 213.33 48.6484C211.846 49.1953 210.119 49.4688 208.151 49.4688C205.948 49.4688 204.073 49.3125 202.526 49C200.979 48.6875 199.658 48.1406 198.565 47.3594ZM225.481 49C224.544 49 224.075 48.5312 224.075 47.5938V25.7969C224.075 24.8594 224.544 24.3906 225.481 24.3906H229.184C230.122 24.3906 230.591 24.8594 230.591 25.7969V27.1562H230.684C231.137 26.1562 231.903 25.3672 232.981 24.7891C234.059 24.2109 235.067 23.9219 236.005 23.9219C237.88 23.9219 239.333 24.3594 240.364 25.2344C241.411 26.1094 242.13 27.0859 242.52 28.1641H242.614C243.973 26.3984 245.2 25.25 246.294 24.7188C247.403 24.1875 248.817 23.9219 250.536 23.9219C252.848 23.9219 254.794 24.6875 256.372 26.2188C257.966 27.75 258.762 30.5469 258.762 34.6094V47.5938C258.762 48.5312 258.294 49 257.356 49H253.606C252.669 49 252.2 48.5312 252.2 47.5938V36.2969C252.2 32.8906 251.966 30.7422 251.497 29.8516C251.044 28.9609 250.231 28.5156 249.059 28.5156C247.966 28.5156 246.966 29.1562 246.059 30.4375C245.153 31.7188 244.7 34.3594 244.7 38.3594V47.5938C244.7 48.5312 244.231 49 243.294 49H239.544C238.606 49 238.137 48.5312 238.137 47.5938V36.2969C238.137 32.8906 237.903 30.7422 237.434 29.8516C236.981 28.9609 236.169 28.5156 234.997 28.5156C233.903 28.5156 232.903 29.1562 231.997 30.4375C231.091 31.7031 230.637 34.3438 230.637 38.3594V47.5938C230.637 48.5312 230.169 49 229.231 49H225.481ZM267.937 49C266.999 49 266.531 48.5312 266.531 47.5938V25.7969C266.531 24.8594 266.999 24.3906 267.937 24.3906H271.687C272.624 24.3906 273.093 24.8594 273.093 25.7969V47.5938C273.093 48.5312 272.624 49 271.687 49H267.937ZM267.937 20.7812C266.999 20.7812 266.531 20.3125 266.531 19.375V16.375C266.531 15.4375 266.999 14.9688 267.937 14.9688H271.687C272.624 14.9688 273.093 15.4375 273.093 16.375V19.375C273.093 20.3125 272.624 20.7812 271.687 20.7812H267.937ZM280.088 29.0781C279.166 29.0781 278.705 28.6875 278.705 27.9062V25.5625C278.705 24.7812 279.166 24.3906 280.088 24.3906H281.682V23.5703C281.682 22.8672 281.846 22.2266 282.174 21.6484L283.978 18.4844C284.322 17.8906 284.728 17.5938 285.197 17.5938H286.838C287.775 17.5938 288.244 18.0625 288.244 19V24.3906H292.041C292.963 24.3906 293.424 24.7812 293.424 25.5625V27.9062C293.424 28.6875 292.963 29.0781 292.041 29.0781H288.244V40.7031C288.244 42.2969 288.353 43.4453 288.572 44.1484C288.807 44.8359 289.4 45.1797 290.353 45.1797C290.838 45.1797 291.385 45.1016 291.994 44.9453C292.603 44.7734 293.08 44.6094 293.424 44.4531C293.971 44.2031 294.33 44.3828 294.502 44.9922L295.205 47.6641C295.346 48.1953 295.143 48.5859 294.596 48.8359C294.08 49.0703 293.369 49.2812 292.463 49.4688C291.572 49.6719 290.674 49.7734 289.768 49.7734C287.533 49.7734 285.627 49.3125 284.049 48.3906C282.471 47.4688 281.682 45.5703 281.682 42.6953V29.0781H280.088ZM302.458 49C301.52 49 301.051 48.5312 301.051 47.5938V15.8125C301.051 14.875 301.52 14.4062 302.458 14.4062H306.208C307.145 14.4062 307.614 14.875 307.614 15.8125V25.2812C307.614 25.9062 307.583 26.5312 307.52 27.1562H307.661C308.379 25.9219 309.293 25.0781 310.403 24.625C311.512 24.1562 312.848 23.9219 314.411 23.9219C316.848 23.9219 318.864 24.6875 320.458 26.2188C322.051 27.75 322.848 30.5469 322.848 34.6094V47.5938C322.848 48.5312 322.379 49 321.442 49H317.692C316.754 49 316.286 48.5312 316.286 47.5938V36.2969C316.286 32.8906 316.051 30.7422 315.583 29.8516C315.114 28.9609 314.106 28.5156 312.559 28.5156C310.918 28.5156 309.684 29.1562 308.856 30.4375C308.028 31.7031 307.614 34.3438 307.614 38.3594V47.5938C307.614 48.5312 307.145 49 306.208 49H302.458Z" fill="#173ab6"/>
</svg>
